<svg xmlns="http://www.w3.org/2000/svg" viewBox="0 0 90.46 56.52"><title>paydollar-logo</title><path d="M82.65,48.65H.26V8.32H82.65a8.06,8.06,0,0,1,8.07,8.06V40.59a8.06,8.06,0,0,1-8.07,8.06Z" transform="translate(-0.26 -0.24)" style="fill:#19338f"/><path d="M82.65,46.63a6.09,6.09,0,0,0,6.07-6.09l0-24.16a6,6,0,0,0-6-6H2.28v36.3Z" transform="translate(-0.26 -0.24)" style="fill:#fcb131"/><path d="M.26,8.31A8.06,8.06,0,0,1,8.33.25h14.8a10.65,10.65,0,0,1,9.22,6.31l6.16,15.94a20.34,20.34,0,0,1,0,12l-6,15.92a10.57,10.57,0,0,1-9.18,6.31l-13.5,0-1.46,0A8.06,8.06,0,0,1,.26,48.65V8.31Z" transform="translate(-0.26 -0.24)" style="fill:#19338f"/><path d="M22.66,25.48c0-2.07-1-3.45-3.79-3.45C17.3,22,15,22.75,15,23.16a.71.71,0,0,0,.07.32l.32.87a.18.18,0,0,0,.17.12,7.91,7.91,0,0,1,3-.79c1.75,0,2.19.79,2.19,2.21v.89c-1.52,0-6.44.12-6.44,4.28,0,2.18,1.25,3.46,3.19,3.46,2.88,0,5.12-.46,5.12-3.81Zm-1.87,6.31c0,.78-1.52,1.11-2.8,1.11a1.81,1.81,0,0,1-1.8-2c0-2.58,3.52-2.58,4.6-2.61v3.49" transform="translate(-0.26 -0.24)" style="fill:#fff"/><path d="M79.11,25.48c0-2.07-1-3.45-3.78-3.45-1.58,0-3.84.72-3.84,1.13a.88.88,0,0,0,.07.32l.32.87a.19.19,0,0,0,.17.12,8,8,0,0,1,3-.79c1.75,0,2.2.79,2.2,2.21v.89c-1.53,0-6.45.12-6.45,4.28,0,2.18,1.25,3.46,3.2,3.46,2.87,0,5.11-.46,5.11-3.81Zm-1.86,6.31c0,.78-1.53,1.11-2.81,1.11a1.81,1.81,0,0,1-1.8-2c0-2.58,3.52-2.58,4.61-2.61v3.49" transform="translate(-0.26 -0.24)" style="fill:#19338f"/><path d="M4.29,39c0,.12,0,.32.17.32a1.17,1.17,0,0,0,.3-.05L6,39c.1,0,.17-.13.17-.3v-5a5.12,5.12,0,0,0,3,.83c2.85,0,4.1-3,4.1-6.49,0-3.05-1.2-6-3.83-6s-5.14,1.13-5.14,4.23ZM6.16,25.81c0-.59.18-2.14,2.93-2.13,2,0,2.16,2.34,2.16,4.4,0,2.38-.2,4.8-2.31,4.8a5.38,5.38,0,0,1-2.78-.82s0-5.28,0-6.25" transform="translate(-0.26 -0.24)" style="fill:#fff"/><path d="M31.6,33.6a5.37,5.37,0,0,1-3.08.92c-2.85,0-4.11-3-4.11-6.39v-5.8c0-.2.1-.29.3-.29H26c.27,0,.32.15.32.37v5.67c0,2.38.35,4.8,2.47,4.8a5.38,5.38,0,0,0,2.78-.82s0-5.28,0-6.25v-3.5a.26.26,0,0,1,.29-.3h1.25c.28,0,.32.15.32.37v9.31a34.52,34.52,0,0,1-.31,6.54,3.39,3.39,0,0,1-2.48,2.55c-1.35.36-3.21,0-3.3-.38a.29.29,0,0,1,0-.16l.22-1.07a.21.21,0,0,1,.14-.17c.26-.07,1.36.63,2.52.32.89-.24,1.32-1.26,1.39-2.51Z" transform="translate(-0.26 -0.24)" style="fill:#fff"/><path d="M50.42,16.7c0-.13,0-.32-.17-.32a1.17,1.17,0,0,0-.3.05l-1.23.29c-.09,0-.17.12-.17.29v5.86a5.18,5.18,0,0,0-3-.84c-2.85,0-4.1,2.95-4.1,6.49,0,3.05,1.2,6,3.83,6s5.14-1.13,5.14-4.23ZM48.55,30.75c0,.59-.18,2.14-2.92,2.13-2,0-2.17-2.34-2.17-4.41,0-2.38.2-4.79,2.31-4.79a5.44,5.44,0,0,1,2.78.81v6.26" transform="translate(-0.26 -0.24)" style="fill:#19338f"/><path d="M61.67,28.2c0-3.46-1.42-6.17-4.79-6.17-3.56,0-5,2.91-5,6.3s1.43,6.19,4.74,6.19C60.22,34.52,61.67,31.65,61.67,28.2ZM56.81,33c-2.26,0-2.9-2.09-2.9-4.89,0-2.44.66-4.55,2.87-4.55s2.88,2.21,2.88,4.62C59.66,31,59,33,56.81,33" transform="translate(-0.26 -0.24)" style="fill:#19338f"/><path d="M65.06,33.88a.27.27,0,0,1-.3.3H63.48a.26.26,0,0,1-.29-.3V17c0-.17.07-.27.17-.3l1.23-.29a1.17,1.17,0,0,1,.3-.05c.17,0,.17.2.17.32Z" transform="translate(-0.26 -0.24)" style="fill:#19338f"/><path d="M69.16,33.88a.27.27,0,0,1-.3.3H67.58a.26.26,0,0,1-.29-.3V17c0-.17.07-.27.17-.3l1.23-.29a1.17,1.17,0,0,1,.3-.05c.17,0,.17.2.17.32Z" transform="translate(-0.26 -0.24)" style="fill:#19338f"/><path d="M82.8,33.88a.26.26,0,0,1-.29.3H81.23a.27.27,0,0,1-.3-.3V25.45c0-2.94,3.13-3.42,4.55-3.42.57,0,1.21.2,1.21.43a.55.55,0,0,1-.08.19l-.49,1.12c0,.05,0,.14-.13.14a3,3,0,0,0-.89-.19c-.86,0-2.3,0-2.3,1.68Z" transform="translate(-0.26 -0.24)" style="fill:#19338f"/><path d="M61.67,28.2c0-3.46-1.42-6.17-4.79-6.17-3.56,0-5,2.91-5,6.3s1.43,6.19,4.74,6.19C60.22,34.52,61.67,31.65,61.67,28.2ZM56.81,33c-2.26,0-2.9-2.09-2.9-4.89,0-2.44.66-4.55,2.87-4.55s2.88,2.21,2.88,4.62C59.66,31,59,33,56.81,33" transform="translate(-0.26 -0.24)" style="fill:#19338f"/><path d="M65.06,33.88a.27.27,0,0,1-.3.3H63.48a.26.26,0,0,1-.29-.3V17c0-.17.07-.27.17-.3l1.23-.29a1.17,1.17,0,0,1,.3-.05c.17,0,.17.2.17.32Z" transform="translate(-0.26 -0.24)" style="fill:#19338f"/><path d="M69.16,33.88a.27.27,0,0,1-.3.3H67.58a.26.26,0,0,1-.29-.3V17c0-.17.07-.27.17-.3l1.23-.29a1.17,1.17,0,0,1,.3-.05c.17,0,.17.2.17.32Z" transform="translate(-0.26 -0.24)" style="fill:#19338f"/></svg>